<svg xmlns="http://www.w3.org/2000/svg" xmlns:xlink="http://www.w3.org/1999/xlink" width="570" zoomAndPan="magnify" viewBox="0 0 427.5 67.499998" height="90" preserveAspectRatio="xMidYMid meet" version="1.0"><defs><g/><clipPath id="87c2892e2a"><path d="M 45.046875 25.925781 L 72.320312 25.925781 L 72.320312 53.183594 L 45.046875 53.183594 Z M 45.046875 25.925781 " clip-rule="nonzero"/></clipPath><clipPath id="fe9c0e4530"><path d="M 52.535156 21.285156 L 76.941406 33.410156 L 64.816406 57.816406 L 40.410156 45.691406 Z M 52.535156 21.285156 " clip-rule="nonzero"/></clipPath><clipPath id="dc7def9c48"><path d="M 52.535156 21.285156 L 76.941406 33.410156 L 64.816406 57.816406 L 40.410156 45.691406 Z M 52.535156 21.285156 " clip-rule="nonzero"/></clipPath><clipPath id="21c0a6984b"><path d="M 52.535156 21.285156 L 76.941406 33.410156 L 64.816406 57.816406 L 40.410156 45.691406 Z M 52.535156 21.285156 " clip-rule="nonzero"/></clipPath><clipPath id="f8c7c08d35"><path d="M 39.027344 20.566406 L 73.40625 20.566406 L 73.40625 54.929688 L 39.027344 54.929688 Z M 39.027344 20.566406 " clip-rule="nonzero"/></clipPath><clipPath id="eb17ae73dd"><path d="M 48.472656 14.722656 L 79.246094 30.011719 L 63.957031 60.785156 L 33.183594 45.496094 Z M 48.472656 14.722656 " clip-rule="nonzero"/></clipPath><clipPath id="a8c5aceb35"><path d="M 48.472656 14.722656 L 79.246094 30.011719 L 63.957031 60.785156 L 33.183594 45.496094 Z M 48.472656 14.722656 " clip-rule="nonzero"/></clipPath><clipPath id="7be5053954"><path d="M 48.472656 14.722656 L 79.246094 30.011719 L 63.957031 60.785156 L 33.183594 45.496094 Z M 48.472656 14.722656 " clip-rule="nonzero"/></clipPath><clipPath id="45a7229a33"><path d="M 33.652344 16.421875 L 74.390625 16.421875 L 74.390625 57.144531 L 33.652344 57.144531 Z M 33.652344 16.421875 " clip-rule="nonzero"/></clipPath><clipPath id="692ea73ddf"><path d="M 44.835938 9.484375 L 81.3125 27.605469 L 63.191406 64.082031 L 26.714844 45.960938 Z M 44.835938 9.484375 " clip-rule="nonzero"/></clipPath><clipPath id="98c59b1c24"><path d="M 44.835938 9.484375 L 81.3125 27.605469 L 63.191406 64.082031 L 26.714844 45.960938 Z M 44.835938 9.484375 " clip-rule="nonzero"/></clipPath><clipPath id="94f1b8bb9a"><path d="M 44.835938 9.484375 L 81.3125 27.605469 L 63.191406 64.082031 L 26.714844 45.960938 Z M 44.835938 9.484375 " clip-rule="nonzero"/></clipPath><clipPath id="c70aaa769d"><path d="M 23.519531 7.203125 L 75.90625 7.203125 L 75.90625 60.519531 L 23.519531 60.519531 Z M 23.519531 7.203125 " clip-rule="nonzero"/></clipPath><clipPath id="206f8834ef"><path d="M 55.464844 34.042969 L 70.476562 34.042969 L 70.476562 53.824219 L 55.464844 53.824219 Z M 55.464844 34.042969 " clip-rule="nonzero"/></clipPath><clipPath id="2e1370a8da"><path d="M 53.808594 34.035156 L 57.125 34.035156 L 57.125 37.351562 L 53.808594 37.351562 Z M 53.808594 34.035156 " clip-rule="nonzero"/></clipPath><clipPath id="69a78f7719"><path d="M 55.464844 34.035156 C 54.550781 34.035156 53.808594 34.777344 53.808594 35.691406 C 53.808594 36.609375 54.550781 37.351562 55.464844 37.351562 C 56.382812 37.351562 57.125 36.609375 57.125 35.691406 C 57.125 34.777344 56.382812 34.035156 55.464844 34.035156 Z M 55.464844 34.035156 " clip-rule="nonzero"/></clipPath><clipPath id="36f0d504cd"><path d="M 53.808594 41.128906 L 57.125 41.128906 L 57.125 44.445312 L 53.808594 44.445312 Z M 53.808594 41.128906 " clip-rule="nonzero"/></clipPath><clipPath id="8e7fc88e41"><path d="M 55.464844 41.128906 C 54.550781 41.128906 53.808594 41.871094 53.808594 42.789062 C 53.808594 43.703125 54.550781 44.445312 55.464844 44.445312 C 56.382812 44.445312 57.125 43.703125 57.125 42.789062 C 57.125 41.871094 56.382812 41.128906 55.464844 41.128906 Z M 55.464844 41.128906 " clip-rule="nonzero"/></clipPath></defs><g clip-path="url(#87c2892e2a)"><g clip-path="url(#fe9c0e4530)"><g clip-path="url(#dc7def9c48)"><g clip-path="url(#21c0a6984b)"><path fill="#000000" d="M 52.613281 51.753906 C 45.871094 48.402344 43.144531 40.191406 46.472656 33.488281 C 49.804688 26.785156 57.996094 24 64.738281 27.347656 C 71.480469 30.699219 74.230469 38.871094 70.878906 45.613281 C 67.53125 52.355469 59.316406 55.085938 52.613281 51.753906 Z M 64.367188 28.101562 C 58.039062 24.957031 50.371094 27.535156 47.226562 33.863281 C 44.082031 40.191406 46.660156 47.855469 52.988281 51 C 59.316406 54.144531 66.984375 51.566406 70.125 45.238281 C 73.269531 38.910156 70.65625 31.226562 64.367188 28.101562 Z M 64.367188 28.101562 " fill-opacity="1" fill-rule="nonzero"/></g></g></g></g><g clip-path="url(#f8c7c08d35)"><g clip-path="url(#eb17ae73dd)"><g clip-path="url(#a8c5aceb35)"><g clip-path="url(#7be5053954)"><path fill="#000000" d="M 48.570312 53.140625 C 40.070312 48.917969 36.628906 38.5625 40.828125 30.109375 C 45.027344 21.65625 55.359375 18.144531 63.859375 22.367188 C 72.359375 26.589844 75.824219 36.898438 71.601562 45.398438 C 67.378906 53.898438 57.023438 57.339844 48.570312 53.140625 Z M 63.386719 23.316406 C 55.410156 19.355469 45.742188 22.605469 41.777344 30.582031 C 37.816406 38.558594 41.066406 48.226562 49.042969 52.191406 C 57.019531 56.152344 66.6875 52.902344 70.652344 44.925781 C 74.613281 36.949219 71.316406 27.257812 63.386719 23.316406 Z M 63.386719 23.316406 " fill-opacity="1" fill-rule="nonzero"/></g></g></g></g><g clip-path="url(#45a7229a33)"><g clip-path="url(#692ea73ddf)"><g clip-path="url(#98c59b1c24)"><g clip-path="url(#94f1b8bb9a)"><path fill="#000000" d="M 44.953125 55.019531 C 34.878906 50.015625 30.796875 37.742188 35.777344 27.722656 C 40.753906 17.703125 53 13.539062 63.074219 18.546875 C 73.148438 23.550781 77.257812 35.769531 72.25 45.84375 C 67.246094 55.917969 54.972656 59.996094 44.953125 55.019531 Z M 62.515625 19.671875 C 53.058594 14.972656 41.601562 18.824219 36.902344 28.28125 C 32.203125 37.738281 36.054688 49.195312 45.511719 53.894531 C 54.96875 58.59375 66.425781 54.742188 71.125 45.285156 C 75.824219 35.828125 71.914062 24.339844 62.515625 19.671875 Z M 62.515625 19.671875 " fill-opacity="1" fill-rule="nonzero"/></g></g></g></g><g clip-path="url(#c70aaa769d)"><path fill="#000000" d="M 49.246094 7.1875 C 50.578125 7.210938 51.902344 7.324219 53.21875 7.523438 C 54.53125 7.738281 55.824219 8.042969 57.09375 8.4375 C 58.359375 8.839844 59.589844 9.332031 60.785156 9.910156 C 61.976562 10.496094 63.121094 11.160156 64.214844 11.90625 C 64.488281 12.089844 64.757812 12.28125 65.023438 12.476562 C 65.285156 12.671875 65.546875 12.875 65.804688 13.078125 C 66.0625 13.285156 66.316406 13.496094 66.566406 13.710938 C 66.816406 13.921875 67.0625 14.144531 67.304688 14.367188 C 67.542969 14.589844 67.78125 14.816406 68.015625 15.050781 C 68.25 15.28125 68.476562 15.519531 68.703125 15.761719 C 68.925781 16 69.148438 16.246094 69.363281 16.496094 C 69.578125 16.742188 69.789062 16.996094 69.996094 17.253906 C 70.203125 17.507812 70.40625 17.769531 70.601562 18.03125 C 70.800781 18.296875 70.992188 18.5625 71.179688 18.835938 C 71.363281 19.105469 71.546875 19.378906 71.722656 19.65625 C 71.902344 19.9375 72.074219 20.214844 72.242188 20.5 C 72.40625 20.785156 72.570312 21.070312 72.726562 21.359375 C 72.882812 21.652344 73.03125 21.945312 73.175781 22.238281 C 73.324219 22.535156 73.464844 22.832031 73.597656 23.132812 C 73.734375 23.433594 73.863281 23.738281 73.984375 24.042969 C 74.167969 24.496094 74.335938 24.953125 74.492188 25.414062 C 74.648438 25.875 74.792969 26.34375 74.925781 26.8125 C 75.058594 27.28125 75.175781 27.753906 75.28125 28.230469 C 75.386719 28.707031 75.476562 29.1875 75.554688 29.667969 C 75.632812 30.148438 75.699219 30.632812 75.753906 31.117188 C 75.804688 31.605469 75.84375 32.089844 75.867188 32.578125 C 75.894531 33.066406 75.90625 33.550781 75.902344 34.039062 C 75.902344 34.527344 75.886719 35.015625 75.859375 35.503906 C 75.832031 35.988281 75.789062 36.476562 75.734375 36.960938 C 75.679688 37.445312 75.609375 37.929688 75.527344 38.410156 C 75.449219 38.890625 75.351562 39.367188 75.246094 39.84375 C 75.136719 40.320312 75.015625 40.792969 74.882812 41.261719 C 74.746094 41.730469 74.601562 42.195312 74.441406 42.65625 C 74.28125 43.117188 74.109375 43.574219 73.925781 44.027344 C 73.738281 44.480469 73.542969 44.925781 73.332031 45.367188 C 73.125 45.804688 72.902344 46.242188 72.667969 46.667969 C 72.4375 47.097656 72.191406 47.519531 71.933594 47.933594 C 71.679688 48.351562 71.410156 48.757812 71.132812 49.15625 C 70.851562 49.558594 70.5625 49.949219 70.261719 50.335938 C 69.960938 50.71875 69.648438 51.09375 69.328125 51.460938 C 69.007812 51.828125 68.675781 52.1875 68.335938 52.539062 C 67.996094 52.886719 67.644531 53.226562 67.285156 53.554688 C 66.925781 53.886719 66.554688 54.203125 66.179688 54.515625 C 65.800781 54.824219 65.417969 55.121094 65.023438 55.410156 C 64.628906 55.699219 64.226562 55.976562 63.816406 56.242188 C 63.410156 56.507812 62.992188 56.761719 62.570312 57.007812 C 62.148438 57.25 61.71875 57.480469 61.28125 57.699219 C 60.847656 57.921875 60.40625 58.128906 59.957031 58.324219 C 59.511719 58.519531 59.058594 58.699219 58.601562 58.871094 C 58.144531 59.042969 57.683594 59.199219 57.214844 59.34375 C 56.75 59.488281 56.28125 59.621094 55.808594 59.742188 C 55.332031 59.859375 54.859375 59.964844 54.378906 60.058594 C 54.0625 60.117188 53.746094 60.171875 53.429688 60.21875 C 53.113281 60.269531 52.792969 60.308594 52.476562 60.347656 C 52.15625 60.382812 51.835938 60.414062 51.515625 60.4375 C 51.195312 60.460938 50.875 60.480469 50.554688 60.492188 C 50.234375 60.503906 49.914062 60.511719 49.59375 60.511719 C 49.273438 60.511719 48.953125 60.507812 48.632812 60.496094 C 48.308594 60.484375 47.988281 60.464844 47.671875 60.441406 C 47.351562 60.417969 47.03125 60.390625 46.710938 60.355469 C 46.390625 60.320312 46.074219 60.277344 45.757812 60.230469 C 45.441406 60.183594 45.121094 60.128906 44.808594 60.070312 C 44.492188 60.011719 44.179688 59.949219 43.863281 59.878906 C 43.550781 59.808594 43.238281 59.730469 42.929688 59.648438 C 42.621094 59.566406 42.3125 59.480469 42.003906 59.386719 C 41.695312 59.292969 41.390625 59.191406 41.089844 59.085938 C 40.785156 58.980469 40.484375 58.871094 40.183594 58.753906 C 39.886719 58.640625 39.589844 58.515625 39.292969 58.390625 C 39.003906 58.265625 38.710938 58.132812 38.425781 57.996094 C 38.136719 57.859375 37.851562 57.714844 37.570312 57.566406 C 37.285156 57.421875 37.007812 57.269531 36.730469 57.109375 C 36.453125 56.953125 36.179688 56.789062 35.910156 56.621094 C 35.636719 56.457031 35.371094 56.28125 35.105469 56.105469 C 34.839844 55.929688 34.578125 55.746094 34.320312 55.558594 C 34.0625 55.371094 33.808594 55.179688 33.558594 54.984375 C 33.304688 54.789062 33.058594 54.589844 32.816406 54.382812 C 32.570312 54.179688 32.332031 53.96875 32.09375 53.753906 C 31.859375 53.542969 31.625 53.324219 31.398438 53.101562 C 31.167969 52.878906 30.945312 52.652344 30.726562 52.421875 C 30.503906 52.191406 30.289062 51.957031 30.078125 51.71875 C 29.867188 51.480469 29.660156 51.238281 29.457031 50.992188 C 29.253906 50.746094 29.054688 50.496094 28.863281 50.246094 C 28.667969 49.992188 28.480469 49.734375 28.296875 49.476562 C 28.109375 49.214844 27.929688 48.953125 27.757812 48.6875 C 27.582031 48.421875 27.414062 48.152344 27.25 47.882812 C 27.085938 47.613281 26.925781 47.339844 26.773438 47.0625 C 26.617188 46.785156 26.46875 46.507812 26.324219 46.226562 C 26.179688 45.941406 26.042969 45.660156 25.910156 45.371094 C 25.777344 45.085938 25.648438 44.796875 25.527344 44.503906 C 25.402344 44.210938 25.285156 43.917969 25.175781 43.621094 C 25.0625 43.324219 24.957031 43.027344 24.859375 42.726562 C 24.757812 42.425781 24.660156 42.125 24.574219 41.820312 C 24.484375 41.519531 24.398438 41.210938 24.320312 40.90625 C 24.242188 40.597656 24.171875 40.289062 24.105469 39.980469 C 24.039062 39.671875 23.976562 39.363281 23.921875 39.050781 C 23.867188 38.738281 23.816406 38.425781 23.773438 38.113281 C 23.730469 37.800781 23.691406 37.484375 23.660156 37.167969 C 23.628906 36.855469 23.601562 36.539062 23.582031 36.222656 C 23.5625 35.90625 23.546875 35.59375 23.539062 35.277344 C 23.53125 34.960938 23.527344 34.644531 23.53125 34.328125 C 23.535156 34.640625 23.546875 34.953125 23.5625 35.269531 C 23.578125 35.582031 23.597656 35.894531 23.625 36.207031 C 23.652344 36.523438 23.6875 36.835938 23.726562 37.144531 C 23.761719 37.457031 23.808594 37.769531 23.859375 38.078125 C 23.910156 38.390625 23.964844 38.699219 24.027344 39.007812 C 24.089844 39.316406 24.15625 39.621094 24.230469 39.925781 C 24.300781 40.234375 24.382812 40.539062 24.464844 40.839844 C 24.550781 41.144531 24.640625 41.445312 24.734375 41.742188 C 24.832031 42.042969 24.933594 42.339844 25.039062 42.636719 C 25.144531 42.929688 25.257812 43.226562 25.375 43.515625 C 25.492188 43.808594 25.613281 44.097656 25.742188 44.382812 C 25.871094 44.671875 26.003906 44.957031 26.144531 45.238281 C 26.28125 45.519531 26.425781 45.800781 26.574219 46.074219 C 26.722656 46.351562 26.878906 46.625 27.039062 46.898438 C 27.195312 47.167969 27.359375 47.4375 27.53125 47.699219 C 27.699219 47.964844 27.871094 48.226562 28.050781 48.484375 C 28.230469 48.742188 28.410156 48.996094 28.597656 49.246094 C 28.785156 49.496094 28.972656 49.742188 29.167969 49.988281 C 29.363281 50.230469 29.566406 50.46875 29.769531 50.707031 C 29.972656 50.941406 30.179688 51.175781 30.394531 51.402344 C 30.605469 51.632812 30.824219 51.855469 31.042969 52.078125 C 31.265625 52.296875 31.488281 52.515625 31.71875 52.726562 C 31.945312 52.941406 32.179688 53.148438 32.414062 53.351562 C 32.652344 53.554688 32.890625 53.757812 33.132812 53.953125 C 33.375 54.148438 33.625 54.335938 33.875 54.523438 C 34.125 54.710938 34.378906 54.890625 34.632812 55.070312 C 34.890625 55.246094 35.152344 55.417969 35.414062 55.585938 C 35.679688 55.753906 35.945312 55.917969 36.214844 56.078125 C 36.480469 56.234375 36.753906 56.386719 37.027344 56.535156 C 37.304688 56.683594 37.582031 56.828125 37.859375 56.964844 C 38.140625 57.105469 38.421875 57.238281 38.707031 57.367188 C 38.992188 57.492188 39.277344 57.617188 39.566406 57.734375 C 39.996094 57.90625 40.429688 58.066406 40.867188 58.210938 C 41.300781 58.359375 41.742188 58.496094 42.1875 58.621094 C 42.632812 58.742188 43.082031 58.855469 43.53125 58.953125 C 43.980469 59.050781 44.433594 59.136719 44.890625 59.210938 C 45.347656 59.285156 45.804688 59.347656 46.261719 59.394531 C 46.71875 59.445312 47.179688 59.480469 47.640625 59.503906 C 48.101562 59.527344 48.5625 59.535156 49.023438 59.535156 C 49.484375 59.53125 49.945312 59.515625 50.40625 59.488281 C 50.867188 59.460938 51.328125 59.421875 51.785156 59.371094 C 52.246094 59.316406 52.699219 59.25 53.15625 59.171875 C 53.609375 59.09375 54.0625 59.003906 54.511719 58.902344 C 54.960938 58.800781 55.410156 58.683594 55.851562 58.554688 C 56.296875 58.429688 56.734375 58.289062 57.171875 58.136719 C 57.605469 57.984375 58.039062 57.820312 58.464844 57.648438 C 58.890625 57.472656 59.3125 57.285156 59.730469 57.085938 C 60.144531 56.886719 60.554688 56.675781 60.960938 56.457031 C 61.367188 56.234375 61.765625 56 62.15625 55.757812 C 62.546875 55.515625 62.933594 55.261719 63.3125 54.996094 C 63.691406 54.734375 64.058594 54.457031 64.421875 54.171875 C 64.785156 53.886719 65.140625 53.59375 65.488281 53.289062 C 65.835938 52.984375 66.171875 52.671875 66.503906 52.347656 C 66.832031 52.023438 67.152344 51.691406 67.460938 51.351562 C 67.773438 51.011719 68.074219 50.664062 68.367188 50.304688 C 68.660156 49.949219 68.941406 49.582031 69.210938 49.210938 C 69.484375 48.835938 69.746094 48.457031 69.996094 48.070312 C 70.246094 47.683594 70.488281 47.289062 70.714844 46.886719 C 70.945312 46.488281 71.164062 46.082031 71.371094 45.667969 C 71.578125 45.257812 71.773438 44.839844 71.957031 44.414062 C 72.140625 43.992188 72.3125 43.5625 72.472656 43.132812 C 72.632812 42.699219 72.78125 42.261719 72.917969 41.820312 C 73.050781 41.378906 73.175781 40.9375 73.289062 40.488281 C 73.398438 40.039062 73.5 39.589844 73.585938 39.136719 C 73.640625 38.839844 73.691406 38.542969 73.734375 38.242188 C 73.78125 37.945312 73.820312 37.644531 73.855469 37.34375 C 73.886719 37.042969 73.914062 36.742188 73.9375 36.441406 C 73.960938 36.140625 73.976562 35.839844 73.988281 35.535156 C 74 35.234375 74.007812 34.933594 74.007812 34.628906 C 74.007812 34.328125 74.003906 34.027344 73.992188 33.722656 C 73.980469 33.421875 73.964844 33.121094 73.941406 32.820312 C 73.921875 32.515625 73.894531 32.214844 73.859375 31.914062 C 73.828125 31.617188 73.789062 31.316406 73.746094 31.015625 C 73.703125 30.71875 73.652344 30.417969 73.597656 30.121094 C 73.542969 29.824219 73.480469 29.527344 73.414062 29.234375 C 73.351562 28.9375 73.277344 28.644531 73.203125 28.351562 C 73.125 28.0625 73.042969 27.769531 72.957031 27.480469 C 72.867188 27.191406 72.773438 26.902344 72.675781 26.617188 C 72.578125 26.332031 72.476562 26.046875 72.367188 25.765625 C 72.257812 25.484375 72.144531 25.203125 72.027344 24.925781 C 71.90625 24.648438 71.785156 24.371094 71.65625 24.097656 C 71.527344 23.828125 71.390625 23.554688 71.253906 23.285156 C 71.113281 23.019531 70.96875 22.753906 70.820312 22.488281 C 70.671875 22.226562 70.519531 21.964844 70.359375 21.710938 C 70.203125 21.453125 70.039062 21.195312 69.871094 20.945312 C 69.703125 20.695312 69.53125 20.445312 69.355469 20.199219 C 69.175781 19.957031 68.996094 19.714844 68.808594 19.476562 C 68.625 19.238281 68.433594 19.003906 68.238281 18.769531 C 68.046875 18.539062 67.847656 18.3125 67.644531 18.089844 C 67.441406 17.863281 67.234375 17.644531 67.023438 17.425781 C 66.8125 17.210938 66.597656 17 66.378906 16.789062 C 66.160156 16.582031 65.9375 16.378906 65.710938 16.175781 C 65.484375 15.976562 65.253906 15.78125 65.019531 15.589844 C 64.785156 15.398438 64.550781 15.210938 64.308594 15.027344 C 64.070312 14.84375 63.824219 14.664062 63.578125 14.492188 C 63.332031 14.316406 63.082031 14.148438 62.828125 13.980469 C 62.578125 13.820312 62.324219 13.660156 62.066406 13.507812 C 61.8125 13.351562 61.550781 13.203125 61.289062 13.058594 C 61.027344 12.914062 60.765625 12.777344 60.496094 12.640625 C 60.230469 12.507812 59.960938 12.378906 59.6875 12.253906 C 59.417969 12.128906 59.144531 12.007812 58.867188 11.894531 C 58.589844 11.78125 58.3125 11.671875 58.03125 11.566406 C 57.753906 11.460938 57.46875 11.363281 57.1875 11.269531 C 56.902344 11.175781 56.617188 11.085938 56.328125 11.003906 C 56.042969 10.921875 55.753906 10.84375 55.464844 10.769531 C 55.175781 10.699219 54.882812 10.628906 54.589844 10.570312 C 54.296875 10.507812 54.003906 10.449219 53.710938 10.398438 C 53.414062 10.347656 53.121094 10.300781 52.824219 10.261719 C 52.527344 10.222656 52.230469 10.1875 51.933594 10.15625 C 51.636719 10.128906 51.335938 10.105469 51.039062 10.085938 C 50.742188 10.070312 50.441406 10.054688 50.144531 10.046875 C 49.84375 10.042969 49.546875 10.039062 49.246094 10.042969 C 49.222656 10.042969 49.199219 10.042969 49.175781 10.042969 C 49.152344 10.042969 49.128906 10.039062 49.105469 10.039062 C 49.082031 10.035156 49.058594 10.035156 49.039062 10.03125 C 49.015625 10.027344 48.992188 10.023438 48.96875 10.019531 C 48.945312 10.015625 48.921875 10.011719 48.898438 10.003906 C 48.875 10 48.855469 9.996094 48.832031 9.988281 C 48.808594 9.980469 48.785156 9.972656 48.765625 9.96875 C 48.742188 9.960938 48.71875 9.953125 48.699219 9.941406 C 48.675781 9.933594 48.65625 9.925781 48.632812 9.914062 C 48.613281 9.90625 48.59375 9.894531 48.570312 9.882812 C 48.550781 9.875 48.53125 9.863281 48.507812 9.851562 C 48.488281 9.839844 48.46875 9.828125 48.449219 9.8125 C 48.429688 9.800781 48.410156 9.789062 48.390625 9.773438 C 48.375 9.761719 48.355469 9.746094 48.335938 9.730469 C 48.316406 9.71875 48.300781 9.703125 48.28125 9.6875 C 48.265625 9.671875 48.246094 9.65625 48.230469 9.640625 C 48.214844 9.625 48.199219 9.605469 48.183594 9.589844 C 48.167969 9.574219 48.152344 9.554688 48.136719 9.535156 C 48.121094 9.519531 48.105469 9.5 48.089844 9.480469 C 48.078125 9.464844 48.0625 9.445312 48.050781 9.425781 C 48.039062 9.40625 48.023438 9.386719 48.011719 9.367188 C 48 9.347656 47.988281 9.328125 47.976562 9.304688 C 47.964844 9.285156 47.953125 9.265625 47.945312 9.246094 C 47.933594 9.222656 47.925781 9.203125 47.914062 9.179688 C 47.90625 9.160156 47.898438 9.136719 47.890625 9.117188 C 47.878906 9.09375 47.875 9.070312 47.867188 9.050781 C 47.859375 9.027344 47.851562 9.003906 47.847656 8.980469 C 47.839844 8.960938 47.835938 8.9375 47.828125 8.914062 C 47.824219 8.890625 47.820312 8.867188 47.816406 8.84375 C 47.8125 8.820312 47.808594 8.796875 47.808594 8.773438 C 47.804688 8.753906 47.804688 8.730469 47.800781 8.707031 C 47.800781 8.683594 47.800781 8.660156 47.800781 8.636719 C 47.796875 8.613281 47.800781 8.589844 47.800781 8.566406 C 47.800781 8.542969 47.800781 8.519531 47.804688 8.496094 C 47.804688 8.472656 47.808594 8.449219 47.8125 8.425781 C 47.816406 8.402344 47.820312 8.378906 47.824219 8.355469 C 47.828125 8.332031 47.832031 8.308594 47.835938 8.289062 C 47.84375 8.265625 47.847656 8.242188 47.855469 8.21875 C 47.863281 8.199219 47.867188 8.175781 47.875 8.152344 C 47.882812 8.132812 47.890625 8.109375 47.902344 8.085938 C 47.910156 8.066406 47.917969 8.042969 47.929688 8.023438 C 47.9375 8 47.949219 7.980469 47.957031 7.960938 C 47.96875 7.9375 47.980469 7.917969 47.992188 7.898438 C 48.003906 7.878906 48.015625 7.859375 48.027344 7.839844 C 48.042969 7.820312 48.054688 7.800781 48.070312 7.78125 C 48.082031 7.761719 48.097656 7.742188 48.109375 7.726562 C 48.125 7.707031 48.140625 7.6875 48.15625 7.671875 C 48.171875 7.652344 48.1875 7.636719 48.203125 7.621094 C 48.21875 7.601562 48.238281 7.585938 48.253906 7.570312 C 48.269531 7.554688 48.289062 7.539062 48.308594 7.523438 C 48.324219 7.507812 48.34375 7.496094 48.363281 7.480469 C 48.378906 7.464844 48.398438 7.453125 48.417969 7.441406 C 48.4375 7.425781 48.457031 7.414062 48.476562 7.402344 C 48.496094 7.390625 48.515625 7.378906 48.539062 7.367188 C 48.558594 7.355469 48.578125 7.34375 48.601562 7.332031 C 48.621094 7.324219 48.640625 7.3125 48.664062 7.304688 C 48.683594 7.296875 48.707031 7.285156 48.730469 7.277344 C 48.75 7.269531 48.773438 7.261719 48.796875 7.253906 C 48.816406 7.25 48.839844 7.242188 48.863281 7.234375 C 48.886719 7.230469 48.90625 7.226562 48.929688 7.21875 C 48.953125 7.214844 48.976562 7.210938 49 7.207031 C 49.023438 7.203125 49.046875 7.199219 49.070312 7.199219 C 49.09375 7.195312 49.117188 7.191406 49.140625 7.191406 C 49.164062 7.191406 49.183594 7.191406 49.207031 7.1875 Z M 49.246094 7.1875 " fill-opacity="1" fill-rule="nonzero"/></g><g clip-path="url(#206f8834ef)"><path fill="#000000" d="M 55.464844 37.355469 C 58.046875 37.351562 60.625 37.347656 63.207031 37.359375 C 64.554688 37.367188 65.445312 38.617188 65.019531 39.859375 C 64.753906 40.632812 64.046875 41.117188 63.117188 41.121094 C 60.566406 41.128906 58.015625 41.125 55.464844 41.125 L 55.464844 44.433594 C 58.269531 44.4375 61.078125 44.441406 63.882812 44.449219 C 65.453125 44.449219 66.667969 45.332031 67.054688 46.726562 C 67.457031 48.167969 66.867188 49.527344 65.496094 50.363281 L 65.496094 53.820312 C 67.34375 53.570312 69.402344 51.804688 70.0625 49.785156 C 71.09375 46.644531 70.117188 44.121094 67.535156 42.132812 C 67.5625 42.074219 67.582031 42.015625 67.617188 41.964844 C 68.660156 40.230469 68.722656 38.449219 67.734375 36.703125 C 66.714844 34.898438 65.09375 34.046875 63.027344 34.046875 C 60.507812 34.046875 57.984375 34.046875 55.464844 34.046875 Z M 55.464844 37.355469 " fill-opacity="1" fill-rule="nonzero"/></g><g clip-path="url(#2e1370a8da)"><g clip-path="url(#69a78f7719)"><path fill="#000000" d="M 53.808594 34.035156 L 57.125 34.035156 L 57.125 37.351562 L 53.808594 37.351562 Z M 53.808594 34.035156 " fill-opacity="1" fill-rule="nonzero"/></g></g><g clip-path="url(#36f0d504cd)"><g clip-path="url(#8e7fc88e41)"><path fill="#000000" d="M 53.808594 41.128906 L 57.125 41.128906 L 57.125 44.445312 L 53.808594 44.445312 Z M 53.808594 41.128906 " fill-opacity="1" fill-rule="nonzero"/></g></g><g fill="#000000" fill-opacity="1"><g transform="translate(83.124402, 60.99929)"><g><path d="M 55.671875 0 C 60.296875 0 64.25 -1.640625 67.53125 -4.921875 C 70.820312 -8.203125 72.46875 -12.160156 72.46875 -16.796875 L 72.46875 -37.359375 C 72.46875 -41.992188 70.820312 -45.953125 67.53125 -49.234375 C 64.25 -52.515625 60.296875 -54.15625 55.671875 -54.15625 L 7.546875 -54.15625 L 7.546875 0 Z M 55.671875 -6.71875 L 14.265625 -6.71875 L 14.265625 -47.4375 L 55.671875 -47.4375 C 58.460938 -47.4375 60.835938 -46.445312 62.796875 -44.46875 C 64.765625 -42.5 65.75 -40.128906 65.75 -37.359375 L 65.75 -16.796875 C 65.75 -14.023438 64.765625 -11.648438 62.796875 -9.671875 C 60.835938 -7.703125 58.460938 -6.71875 55.671875 -6.71875 Z M 55.671875 -6.71875 "/></g></g><g transform="translate(161.246139, 60.99929)"><g><path d="M 53.78125 0 C 58.414062 0 62.375 -1.640625 65.65625 -4.921875 C 68.9375 -8.203125 70.578125 -12.160156 70.578125 -16.796875 L 70.578125 -37.359375 C 70.578125 -41.992188 68.9375 -45.953125 65.65625 -49.234375 C 62.375 -52.515625 58.414062 -54.15625 53.78125 -54.15625 L 22.453125 -54.15625 C 17.828125 -54.15625 13.867188 -52.515625 10.578125 -49.234375 C 7.296875 -45.953125 5.65625 -41.992188 5.65625 -37.359375 L 5.65625 -16.796875 C 5.65625 -12.160156 7.296875 -8.203125 10.578125 -4.921875 C 13.867188 -1.640625 17.828125 0 22.453125 0 Z M 53.78125 -6.71875 L 22.453125 -6.71875 C 19.691406 -6.71875 17.320312 -7.703125 15.34375 -9.671875 C 13.363281 -11.648438 12.375 -14.023438 12.375 -16.796875 L 12.375 -37.359375 C 12.375 -40.128906 13.363281 -42.5 15.34375 -44.46875 C 17.320312 -46.445312 19.691406 -47.4375 22.453125 -47.4375 L 53.78125 -47.4375 C 56.570312 -47.4375 58.945312 -46.445312 60.90625 -44.46875 C 62.875 -42.5 63.859375 -40.128906 63.859375 -37.359375 L 63.859375 -16.796875 C 63.859375 -14.023438 62.875 -11.648438 60.90625 -9.671875 C 58.945312 -7.703125 56.570312 -6.71875 53.78125 -6.71875 Z M 53.78125 -6.71875 "/></g></g><g transform="translate(237.480877, 60.99929)"><g><path d="M 53.78125 0 C 58.414062 0 62.375 -1.640625 65.65625 -4.921875 C 68.9375 -8.203125 70.578125 -12.160156 70.578125 -16.796875 L 63.859375 -16.796875 C 63.859375 -14.023438 62.875 -11.648438 60.90625 -9.671875 C 58.945312 -7.703125 56.570312 -6.71875 53.78125 -6.71875 L 22.453125 -6.71875 C 19.691406 -6.71875 17.320312 -7.703125 15.34375 -9.671875 C 13.363281 -11.648438 12.375 -14.023438 12.375 -16.796875 L 12.375 -37.359375 C 12.375 -40.128906 13.363281 -42.5 15.34375 -44.46875 C 17.320312 -46.445312 19.691406 -47.4375 22.453125 -47.4375 L 53.78125 -47.4375 C 56.570312 -47.4375 58.945312 -46.445312 60.90625 -44.46875 C 62.875 -42.5 63.859375 -40.128906 63.859375 -37.359375 L 70.578125 -37.359375 C 70.578125 -41.992188 68.9375 -45.953125 65.65625 -49.234375 C 62.375 -52.515625 58.414062 -54.15625 53.78125 -54.15625 L 22.453125 -54.15625 C 17.828125 -54.15625 13.867188 -52.515625 10.578125 -49.234375 C 7.296875 -45.953125 5.65625 -41.992188 5.65625 -37.359375 L 5.65625 -16.796875 C 5.65625 -12.160156 7.296875 -8.203125 10.578125 -4.921875 C 13.867188 -1.640625 17.828125 0 22.453125 0 Z M 53.78125 0 "/></g></g><g transform="translate(313.715616, 60.99929)"><g><path d="M 58.28125 0 L 17.96875 0 C 14.570312 0 11.671875 -1.195312 9.265625 -3.59375 C 6.859375 -6 5.65625 -8.898438 5.65625 -12.296875 L 12.375 -12.296875 C 12.375 -10.765625 12.921875 -9.453125 14.015625 -8.359375 C 15.109375 -7.265625 16.425781 -6.71875 17.96875 -6.71875 L 58.28125 -6.71875 C 59.8125 -6.71875 61.125 -7.265625 62.21875 -8.359375 C 63.3125 -9.453125 63.859375 -10.765625 63.859375 -12.296875 L 63.859375 -18.109375 C 63.859375 -19.648438 63.3125 -20.96875 62.21875 -22.0625 C 61.125 -23.15625 59.8125 -23.703125 58.28125 -23.703125 L 17.96875 -23.703125 C 14.570312 -23.703125 11.671875 -24.898438 9.265625 -27.296875 C 6.859375 -29.703125 5.65625 -32.601562 5.65625 -36 L 5.65625 -41.8125 C 5.65625 -45.21875 6.859375 -48.117188 9.265625 -50.515625 C 11.671875 -52.921875 14.570312 -54.125 17.96875 -54.125 L 58.28125 -54.125 C 61.675781 -54.125 64.570312 -52.921875 66.96875 -50.515625 C 69.375 -48.117188 70.578125 -45.21875 70.578125 -41.8125 L 63.859375 -41.8125 C 63.859375 -43.351562 63.3125 -44.671875 62.21875 -45.765625 C 61.125 -46.859375 59.8125 -47.40625 58.28125 -47.40625 L 17.96875 -47.40625 C 16.425781 -47.40625 15.109375 -46.859375 14.015625 -45.765625 C 12.921875 -44.671875 12.375 -43.351562 12.375 -41.8125 L 12.375 -36 C 12.375 -34.46875 12.921875 -33.15625 14.015625 -32.0625 C 15.109375 -30.96875 16.425781 -30.421875 17.96875 -30.421875 L 58.28125 -30.421875 C 61.675781 -30.421875 64.570312 -29.21875 66.96875 -26.8125 C 69.375 -24.414062 70.578125 -21.515625 70.578125 -18.109375 L 70.578125 -12.296875 C 70.578125 -8.898438 69.375 -6 66.96875 -3.59375 C 64.570312 -1.195312 61.675781 0 58.28125 0 Z M 58.28125 0 "/></g></g></g></svg>